<?xml version="1.0" standalone="no"?>
<!DOCTYPE svg PUBLIC "-//W3C//DTD SVG 20010904//EN"
 "http://www.w3.org/TR/2001/REC-SVG-20010904/DTD/svg10.dtd">
<svg version="1.0" xmlns="http://www.w3.org/2000/svg"
 width="122.000000pt" height="122.000000pt" viewBox="0 0 122.000000 122.000000"
 preserveAspectRatio="xMidYMid meet">
<metadata>
Created by potrace 1.11, written by Peter Selinger 2001-2013
</metadata>
<g transform="translate(0.000000,122.000000) scale(0.100000,-0.100000)"
fill="#000000" stroke="none">
<path d="M937 904 c-4 -4 -22 -9 -39 -10 -54 -4 -121 -36 -160 -74 -21 -21
-38 -43 -38 -49 0 -6 -5 -11 -12 -11 -6 0 -9 -2 -6 -6 3 -3 0 -24 -7 -47 -9
-33 -13 -172 -5 -172 1 0 3 -11 4 -25 5 -70 96 -172 161 -183 11 -1 25 -5 30
-8 6 -4 30 -7 54 -8 24 0 51 -7 59 -13 13 -10 14 -10 8 0 -5 8 2 12 26 13 18
0 40 2 48 4 8 2 26 7 40 10 14 4 30 7 36 7 6 1 11 7 11 14 0 7 -4 11 -9 8 -4
-3 -8 0 -8 5 0 6 6 11 13 11 8 0 7 4 -3 10 -12 8 -12 10 -1 10 8 0 12 2 10 5
-3 2 -21 0 -40 -6 -44 -14 -207 -20 -215 -8 -3 5 -16 9 -30 9 -13 0 -24 5 -24
10 0 6 -6 10 -13 10 -7 0 -19 10 -27 21 -8 12 -21 27 -28 35 -7 7 -13 17 -13
21 0 4 -4 26 -10 48 -20 75 3 199 45 240 19 19 69 44 106 53 49 12 181 5 208
-12 6 -3 14 -1 18 5 4 8 9 7 15 -2 11 -16 5 34 -6 50 -6 10 -42 19 -103 25
-17 1 -35 6 -38 9 -4 3 -15 2 -25 -3 -11 -7 -19 -6 -21 1 -2 6 -7 7 -11 3z"/>
<path d="M69 891 c-19 -8 -23 -32 -7 -42 9 -6 9 -9 1 -9 -11 0 -11 -7 -3 -45
1 -5 1 -14 0 -20 -6 -25 -4 -41 5 -47 6 -5 5 -8 -4 -8 -11 0 -11 -3 -1 -15 7
-8 8 -15 3 -15 -13 0 -11 -73 2 -82 6 -5 6 -8 -2 -8 -12 0 -10 -30 3 -52 4 -7
3 -8 -4 -4 -13 8 -17 -6 -6 -17 4 -4 8 -23 10 -43 8 -94 91 -164 204 -172 30
-2 58 -9 61 -14 4 -7 8 -7 10 0 2 6 20 13 39 16 49 9 51 10 88 29 38 21 78 78
88 127 11 59 11 420 -1 421 -15 1 -79 2 -91 0 -7 -1 -10 -67 -11 -199 0 -196
-4 -225 -37 -257 -19 -19 -69 -32 -117 -30 -51 2 -75 13 -104 45 -18 20 -20
39 -23 231 -2 115 -6 209 -10 210 -28 5 -82 4 -93 0z"/>
</g>
</svg>
